<?xml version="1.0" encoding="UTF-8"?>
<svg id="Capa_1" data-name="Capa 1" xmlns="http://www.w3.org/2000/svg" viewBox="0 0 373.1 45.73">
  <defs>
    <style>
      .cls-1 {
        fill: #f18622;
      }
    </style>
  </defs>
  <polygon class="cls-1" points="38.22 44.89 46.44 44.89 49.33 29.27 41.22 29.31 38.22 44.89"/>
  <polygon class="cls-1" points="14.47 9.59 16.76 23.47 24.04 23.44 20.12 .83 8.16 .83 3.95 23.53 11.98 23.5 14.47 9.59"/>
  <polygon class="cls-1" points="0 44.89 8.16 44.89 10.92 29.46 2.85 29.49 0 44.89"/>
  <polygon class="cls-1" points="25.6 32.45 25.07 29.39 17.75 29.42 20.3 44.89 26.14 44.89 34.45 29.34 27.25 29.38 25.6 32.45"/>
  <polygon class="cls-1" points="45.01 9.59 42.36 23.35 50.43 23.32 54.6 .83 42.57 .83 30.45 23.41 37.64 23.38 45.01 9.59"/>
  <path class="cls-1" d="M65.79,22.86v-.06c1.43-7.74,8.22-15,17.03-15s12.8,7.74,11.43,15.12c-.01.06-.03.13-.04.19l8.93-.04c.01-.07.03-.14.04-.21,2.26-12.5-5.6-22.86-18.93-22.86-12.26,0-24.83,9.11-27.45,23.22v.06s0,0,0,0l8.94-.04c.02-.13.03-.25.05-.38Z"/>
  <path class="cls-1" d="M77.34,37.93c-6.19,0-10.22-3.67-11.43-8.73l-9.37.04c.9,9.19,7.95,16.48,19.13,16.48s21.13-7.13,25.53-16.69l-9.33.04c-2.94,4.9-8.15,8.85-14.53,8.85Z"/>
  <polygon class="cls-1" points="109.08 44.89 117.95 44.89 120.91 28.94 112.03 28.98 109.08 44.89"/>
  <polygon class="cls-1" points="124.68 8.63 134.14 8.63 135.57 .83 107.71 .83 106.28 8.63 115.81 8.63 113.14 23.02 122.01 22.98 124.68 8.63"/>
  <path class="cls-1" d="M140.81,22.86v-.06c1.43-7.74,8.22-15,17.03-15s12.74,7.63,11.45,14.96l8.93-.04c2.17-12.44-5.67-22.72-18.96-22.72-12.18,0-24.65,8.99-27.39,22.93l8.93-.04s0-.02,0-.03Z"/>
  <path class="cls-1" d="M152.36,37.93c-6.33,0-10.41-3.84-11.52-9.08l-9.31.04c.75,9.36,7.85,16.84,19.17,16.84s21.37-7.3,25.69-17.05l-9.29.04c-2.9,5.06-8.21,9.2-14.74,9.2Z"/>
  <polygon class="cls-1" points="180.29 44.89 189.16 44.89 192.18 28.6 183.3 28.65 180.29 44.89"/>
  <path class="cls-1" d="M203.27,44.89h9.29l-6.79-16.31s.1-.03.14-.04l-9.05.04,6.4,16.31Z"/>
  <path class="cls-1" d="M195.89,8.63h5.18c2.5,0,4.58.36,6.01,1.37,1.73,1.25,2.56,3.69,2.08,6.37-.51,2.55-1.89,4.78-3.72,6.22l9.46-.04c1.37-1.95,2.41-4.33,2.89-6.95.89-4.88-.24-9.35-3.39-11.97-2.02-1.73-5.78-2.8-12.62-2.8h-13.34l-4.05,21.85,8.89-.04,2.6-14.01Z"/>
  <polygon class="cls-1" points="235.06 .83 226.19 .83 222.18 22.51 231.05 22.47 235.06 .83"/>
  <polygon class="cls-1" points="218.04 44.89 241.37 44.89 242.8 37.09 228.34 37.09 229.94 28.43 221.08 28.47 218.04 44.89"/>
  <path class="cls-1" d="M271.26,7.8c8.71,0,12.54,7.26,11.53,14.43l8.94-.04c1.86-12.2-5.95-22.18-19.04-22.18-12.02,0-24.33,8.76-27.27,22.4l8.92-.04c1.6-7.57,8.28-14.56,16.93-14.56Z"/>
  <path class="cls-1" d="M265.79,37.93c-6.55,0-10.68-4.1-11.62-9.61l-9.25.04c.52,9.6,7.66,17.37,19.2,17.37s21.74-7.57,25.92-17.58l-9.21.04c-2.83,5.3-8.28,9.74-15.04,9.74Z"/>
  <polygon class="cls-1" points="293.71 44.89 302.58 44.89 305.7 28.07 296.82 28.11 293.71 44.89"/>
  <path class="cls-1" d="M316.69,44.89h9.29l-6.79-16.31c.67-.16,1.32-.35,1.97-.58l-11.08.05,6.61,16.84Z"/>
  <path class="cls-1" d="M309.31,8.63h5.18c2.5,0,4.58.36,6.01,1.37,1.73,1.25,2.56,3.69,2.08,6.37-.45,2.26-1.58,4.25-3.1,5.68l9.2-.04c1.19-1.84,2.09-4.03,2.53-6.41.89-4.88-.24-9.35-3.39-11.97-2.02-1.73-5.77-2.8-12.62-2.8h-13.34l-3.95,21.32,8.89-.04,2.5-13.48Z"/>
  <path class="cls-1" d="M346.88,8.63h6.31c5.36,0,7.98,2.02,9.35,4.41,1.44,2.46,1.73,5.68,1.3,8.8l8.92-.04c.78-5.02.28-9.55-2.06-13.35-3.93-7.08-11.79-7.62-17.27-7.62h-13.99l-3.91,21.14,8.88-.04,2.48-13.3Z"/>
  <path class="cls-1" d="M362.22,27.81c-2.34,5.45-6.94,9.29-14.39,9.29h-6.25l1.71-9.2-8.87.04-3.14,16.96h14.65c13.81,0,21.91-7.17,25.36-17.13l-9.07.04Z"/>
  <polygon class="cls-1" points="38.22 44.89 46.44 44.89 49.33 29.27 41.22 29.31 38.22 44.89"/>
  <polygon class="cls-1" points="0 44.89 8.16 44.89 10.92 29.46 2.85 29.49 0 44.89"/>
  <polygon class="cls-1" points="45.01 9.59 42.36 23.35 50.43 23.32 54.6 .83 42.57 .83 30.45 23.41 37.64 23.38 45.01 9.59"/>
  <path class="cls-1" d="M65.79,22.86v-.06c1.43-7.74,8.22-15,17.03-15s12.8,7.74,11.43,15.12c-.01.06-.03.13-.04.19l8.93-.04c.01-.07.03-.14.04-.21,2.26-12.5-5.6-22.86-18.93-22.86-12.26,0-24.83,9.11-27.45,23.22v.06s0,0,0,0l8.94-.04c.02-.13.03-.25.05-.38Z"/>
  <path class="cls-1" d="M77.34,37.93c-6.19,0-10.22-3.67-11.43-8.73l-9.37.04c.9,9.19,7.95,16.48,19.13,16.48s21.13-7.13,25.53-16.69l-9.33.04c-2.94,4.9-8.15,8.85-14.53,8.85Z"/>
  <polygon class="cls-1" points="109.08 44.89 117.95 44.89 120.91 28.94 112.03 28.98 109.08 44.89"/>
  <polygon class="cls-1" points="124.68 8.63 134.14 8.63 135.57 .83 107.71 .83 106.28 8.63 115.81 8.63 113.14 23.02 122.01 22.98 124.68 8.63"/>
  <path class="cls-1" d="M140.81,22.86v-.06c1.43-7.74,8.22-15,17.03-15s12.74,7.63,11.45,14.96l8.93-.04c2.17-12.44-5.67-22.72-18.96-22.72-12.18,0-24.65,8.99-27.39,22.93l8.93-.04s0-.02,0-.03Z"/>
  <path class="cls-1" d="M152.36,37.93c-6.33,0-10.41-3.84-11.52-9.08l-9.31.04c.75,9.36,7.85,16.84,19.17,16.84s21.37-7.3,25.69-17.05l-9.29.04c-2.9,5.06-8.21,9.2-14.74,9.2Z"/>
  <polygon class="cls-1" points="180.29 44.89 189.16 44.89 192.18 28.6 183.3 28.65 180.29 44.89"/>
  <path class="cls-1" d="M203.27,44.89h9.29l-6.79-16.31s.1-.03.14-.04l-9.05.04,6.4,16.31Z"/>
  <path class="cls-1" d="M195.89,8.63h5.18c2.5,0,4.58.36,6.01,1.37,1.73,1.25,2.56,3.69,2.08,6.37-.51,2.55-1.89,4.78-3.72,6.22l9.46-.04c1.37-1.95,2.41-4.33,2.89-6.95.89-4.88-.24-9.35-3.39-11.97-2.02-1.73-5.78-2.8-12.62-2.8h-13.34l-4.05,21.85,8.89-.04,2.6-14.01Z"/>
  <polygon class="cls-1" points="235.06 .83 226.19 .83 222.18 22.51 231.05 22.47 235.06 .83"/>
  <polygon class="cls-1" points="218.04 44.89 241.37 44.89 242.8 37.09 228.34 37.09 229.94 28.43 221.08 28.47 218.04 44.89"/>
  <path class="cls-1" d="M271.26,7.8c8.71,0,12.54,7.26,11.53,14.43l8.94-.04c1.86-12.2-5.95-22.18-19.04-22.18-12.02,0-24.33,8.76-27.27,22.4l8.92-.04c1.6-7.57,8.28-14.56,16.93-14.56Z"/>
  <path class="cls-1" d="M265.79,37.93c-6.55,0-10.68-4.1-11.62-9.61l-9.25.04c.52,9.6,7.66,17.37,19.2,17.37s21.74-7.57,25.92-17.58l-9.21.04c-2.83,5.3-8.28,9.74-15.04,9.74Z"/>
  <polygon class="cls-1" points="293.71 44.89 302.58 44.89 305.7 28.07 296.82 28.11 293.71 44.89"/>
  <path class="cls-1" d="M316.69,44.89h9.29l-6.79-16.31c.67-.16,1.32-.35,1.97-.58l-11.08.05,6.61,16.84Z"/>
  <path class="cls-1" d="M346.88,8.63h6.31c5.36,0,7.98,2.02,9.35,4.41,1.44,2.46,1.73,5.68,1.3,8.8l8.92-.04c.78-5.02.28-9.55-2.06-13.35-3.93-7.08-11.79-7.62-17.27-7.62h-13.99l-3.91,21.14,8.88-.04,2.48-13.3Z"/>
  <path class="cls-1" d="M362.22,27.81c-2.34,5.45-6.94,9.29-14.39,9.29h-6.25l1.71-9.2-8.87.04-3.14,16.96h14.65c13.81,0,21.91-7.17,25.36-17.13l-9.07.04Z"/>
</svg>